<svg width="14" height="13" viewBox="0 0 14 13" fill="none" xmlns="http://www.w3.org/2000/svg">
<path d="M12.3133 12.2567L10.076 10.0193C9.11072 10.4588 8.06051 10.6803 6.99998 10.668C5.90657 10.6816 4.82445 10.4456 3.83598 9.97801C3.06977 9.60417 2.38174 9.08787 1.80865 8.45668C1.20031 7.80458 0.722178 7.04224 0.39998 6.21068L0.333313 6.00134L0.403313 5.79068C0.885186 4.56154 1.69615 3.48879 2.74731 2.69001L0.99998 0.942676L1.94198 0.00134277L13.2546 11.314L12.3146 12.2567H12.3133ZM3.69065 3.63401C2.8386 4.23129 2.16575 5.04982 1.74465 6.00134C2.64759 8.08461 4.73056 9.40579 6.99998 9.33468C7.69987 9.34041 8.39568 9.22771 9.05798 9.00134L7.85798 7.80134C7.59087 7.93228 7.29745 8.00067 6.99998 8.00134C5.89829 7.99443 5.00689 7.10304 4.99998 6.00134C5.0003 5.70319 5.0687 5.40904 5.19998 5.14134L3.69065 3.63401ZM12.2346 8.40801L11.3066 7.48068C11.6971 7.03929 12.017 6.54031 12.2553 6.00134C11.3535 3.91706 9.26981 2.5954 6.99998 2.66801C6.83531 2.66801 6.66998 2.67401 6.50998 2.68534L5.33331 1.50734C5.88107 1.39017 6.43984 1.33228 6.99998 1.33468C8.09339 1.32111 9.1755 1.55709 10.164 2.02468C10.9302 2.3985 11.6182 2.91481 12.1913 3.54601C12.7994 4.19732 13.2775 4.95873 13.6 5.78934L13.6666 6.00134L13.5966 6.21201C13.2845 7.02406 12.8227 7.77031 12.2353 8.41201L12.2346 8.40801Z" fill="#B8AEBA"/>
</svg>
