<svg width="12" height="12" viewBox="0 0 12 12" fill="none" xmlns="http://www.w3.org/2000/svg">
<path d="M11.25 6C11.6642 6 12.0048 6.3371 11.9532 6.74808C11.8078 7.90551 11.3271 9.00142 10.5624 9.89669C9.63462 10.983 8.34964 11.7026 6.93861 11.9261C5.52758 12.1496 4.08311 11.8623 2.86501 11.1158C1.64691 10.3694 0.735128 9.2128 0.293661 7.8541C-0.147807 6.49541 -0.089986 5.02377 0.456723 3.7039C1.00343 2.38403 2.00315 1.30254 3.27606 0.653961C4.54897 0.00538162 6.01153 -0.167724 7.40067 0.16578C8.5455 0.440629 9.57854 1.04469 10.3765 1.89559C10.6599 2.19772 10.5824 2.67066 10.2473 2.91413V2.91413C9.91223 3.1576 9.44701 3.0777 9.15132 2.78763C8.57266 2.21998 7.84772 1.81573 7.0505 1.62434C6.00864 1.37421 4.91172 1.50404 3.95704 1.99047C3.00236 2.47691 2.25257 3.28802 1.84254 4.27792C1.43251 5.26783 1.38915 6.37155 1.72025 7.39058C2.05135 8.4096 2.73518 9.27704 3.64876 9.83688C4.56233 10.3967 5.64568 10.6122 6.70396 10.4446C7.76223 10.277 8.72597 9.73726 9.42183 8.92252C9.95429 8.29908 10.3032 7.54593 10.4376 6.74656C10.5064 6.33809 10.8358 6 11.25 6V6Z" fill="white"/>
</svg>
